<svg width="24" height="20" viewBox="0 0 24 20" fill="none" xmlns="http://www.w3.org/2000/svg">
<g clip-path="url(#clip0_2113_1596)">
<path d="M23.9988 2.3858C23.1002 2.78395 22.147 3.04526 21.171 3.16103C22.1876 2.55172 22.9682 1.58684 23.3358 0.437207C22.3694 1.01067 21.312 1.41473 20.2094 1.63193C19.3113 0.675121 18.0318 0.0771484 16.6157 0.0771484C13.8966 0.0771484 11.6921 2.28156 11.6921 5.00042C11.6921 5.38635 11.7357 5.76206 11.8196 6.12249C7.72784 5.91711 4.10007 3.95708 1.67172 0.978373C1.24801 1.70552 1.00522 2.55134 1.00522 3.45351C1.00522 5.16165 1.87448 6.66854 3.19547 7.55148C2.41362 7.52704 1.64897 7.31587 0.965378 6.9356C0.965128 6.95623 0.965034 6.97688 0.965097 6.99757C0.965097 9.38299 2.66218 11.3729 4.9144 11.8252C4.18939 12.0224 3.42892 12.0512 2.69105 11.9096C3.31752 13.8656 5.13581 15.2889 7.29017 15.3288C5.60518 16.6492 3.48223 17.4364 1.17564 17.4364C0.778178 17.4364 0.386341 17.413 0.00115967 17.3676C2.17998 18.7645 4.76788 19.5796 7.54824 19.5796C16.6043 19.5796 21.5563 12.0774 21.5563 5.57139C21.5563 5.35785 21.5516 5.14553 21.5421 4.93442C22.5059 4.23755 23.3378 3.37452 23.9988 2.3858Z" fill="#55ACEE"/>
</g>
<defs>
<clipPath id="clip0_2113_1596">
<rect width="24" height="19.5918" fill="white"/>
</clipPath>
</defs>
</svg>
